<?xml version="1.0" encoding="utf-8"?>
<!-- Generator: Adobe Illustrator 19.1.1, SVG Export Plug-In . SVG Version: 6.00 Build 0)  -->
<svg version="1.1" id="Calque_1" xmlns="http://www.w3.org/2000/svg" xmlns:xlink="http://www.w3.org/1999/xlink" x="0px" y="0px"
	 viewBox="115 99.7 841.9 595.3" style="enable-background:new 115 99.7 841.9 595.3;" xml:space="preserve">
<style type="text/css">
	.st0{fill:url(#SVGID_1_);}
	.st1{clip-path:url(#SVGID_3_);fill:#2D2D2D;}
	.st2{clip-path:url(#SVGID_5_);fill:#FFFFFF;}
	.st3{clip-path:url(#SVGID_7_);fill:#FFFFFF;}
	.st4{clip-path:url(#SVGID_9_);fill:#C4D600;}
	.st5{clip-path:url(#SVGID_11_);fill:#C4D600;}
	.st6{clip-path:url(#SVGID_13_);fill:#FFFFFF;}
	.st7{clip-path:url(#SVGID_15_);fill:#FFFFFF;}
	.st8{clip-path:url(#SVGID_17_);fill:#FFFFFF;}
	.st9{clip-path:url(#SVGID_19_);fill:#FFFFFF;}
	.st10{clip-path:url(#SVGID_21_);fill:#FFFFFF;}
	.st11{clip-path:url(#SVGID_23_);fill:#FFFFFF;}
	.st12{clip-path:url(#SVGID_25_);fill:#FFFFFF;}
	.st13{clip-path:url(#SVGID_27_);fill:#FFFFFF;}
	.st14{clip-path:url(#SVGID_29_);fill:#FFFFFF;}
	.st15{clip-path:url(#SVGID_31_);fill:#FFFFFF;}
	.st16{clip-path:url(#SVGID_47_);fill:#FFFFFF;}
</style>
<linearGradient id="SVGID_1_" gradientUnits="userSpaceOnUse" x1="197.892" y1="97.6215" x2="204.892" y2="439.6215" gradientTransform="matrix(2.1503 -0.7092 -0.7092 -2.1503 318.5214 1536.7373)">
	<stop  offset="0" style="stop-color:#C4D500"/>
	<stop  offset="1" style="stop-color:#97BF0D"/>
</linearGradient>
<path class="st0" d="M138.1,709.6L521,428.5c5.6-4,13.2-4.2,18.8,0L925.3,706c5.6,4,7.9,11.2,5.9,17.9l-144.6,452.6
	c-2.2,6.6-8.2,11-15.2,11.2l-475,1.9c-6.9,0.1-13.2-4.4-15.3-10.9L132.3,727.5C130.2,720.9,132.6,713.7,138.1,709.6z"/>
<g>
	<g>
		<g>
			<defs>
				<rect id="SVGID_2_" x="293.2" y="99.7" width="453.3" height="475.6"/>
			</defs>
			<clipPath id="SVGID_3_">
				<use xlink:href="#SVGID_2_"  style="overflow:visible;"/>
			</clipPath>
			<path class="st1" d="M299.8,187.4l268.3-87.3c3.9-1.2,8.2,0.1,10.6,3.5l165.8,228.2c2.4,3.4,2.4,7.8,0,11.2L578.7,571.4
				c-2.4,3.4-6.7,4.7-10.6,3.5l-268.3-87.2c-3.9-1.2-6.6-5-6.6-9V196.4C293.2,192.2,295.9,188.6,299.8,187.4"/>
		</g>
	</g>
	<g>
		<g>
			<defs>
				<rect id="SVGID_4_" x="293.2" y="99.7" width="453.3" height="475.6"/>
			</defs>
			<clipPath id="SVGID_5_">
				<use xlink:href="#SVGID_4_"  style="overflow:visible;"/>
			</clipPath>
			<path class="st2" d="M363.5,378.6v-82.3c0-1.1,0.8-1.9,1.9-1.9h62.1c1.1,0,1.9,0.8,1.9,1.9v14.5c0,1.1-0.8,1.9-1.9,1.9h-44v15.7
				h36.9c1.1,0,1.9,0.8,1.9,1.9v14.5c0,1.1-0.8,1.9-1.9,1.9h-36.9v31.7c0,1.1-0.8,1.9-1.9,1.9h-16.3
				C364.3,380.7,363.5,379.7,363.5,378.6"/>
		</g>
	</g>
	<g>
		<g>
			<defs>
				<rect id="SVGID_6_" x="293.2" y="99.7" width="453.3" height="475.6"/>
			</defs>
			<clipPath id="SVGID_7_">
				<use xlink:href="#SVGID_6_"  style="overflow:visible;"/>
			</clipPath>
			<path class="st3" d="M444.5,378.6v-82.3c0-1.1,0.8-1.9,1.9-1.9h16.3c1.1,0,1.9,0.8,1.9,1.9v82.3c0,1.1-0.8,1.9-1.9,1.9h-16.3
				C445.4,380.7,444.5,379.7,444.5,378.6"/>
		</g>
	</g>
	<g>
		<g>
			<defs>
				<rect id="SVGID_8_" x="293.2" y="99.7" width="453.3" height="475.6"/>
			</defs>
			<clipPath id="SVGID_9_">
				<use xlink:href="#SVGID_8_"  style="overflow:visible;"/>
			</clipPath>
			<path class="st4" d="M581.1,345v-48.7c0-1.1,0.8-1.9,1.9-1.9h62.1c1.1,0,1.9,0.8,1.9,1.9v14.5c0,1.1-0.8,1.9-1.9,1.9h-44.2v15.7
				h44.2c1.1,0,1.9,0.8,1.9,1.9v14.5c0,1.1-0.8,1.9-1.9,1.9H583C581.9,346.9,581.1,346.1,581.1,345"/>
		</g>
	</g>
	<g>
		<g>
			<defs>
				<rect id="SVGID_10_" x="293.2" y="99.7" width="453.3" height="475.6"/>
			</defs>
			<clipPath id="SVGID_11_">
				<use xlink:href="#SVGID_10_"  style="overflow:visible;"/>
			</clipPath>
			<path class="st5" d="M581.1,378.6v-14.3c0-1.1,0.8-1.9,1.9-1.9h62.1c1.1,0,1.9,0.8,1.9,1.9v14.3c0,1.1-0.8,1.9-1.9,1.9H583
				C581.9,380.7,581.1,379.7,581.1,378.6"/>
		</g>
	</g>
	<g>
		<g>
			<defs>
				<rect id="SVGID_12_" x="293.2" y="99.7" width="453.3" height="475.6"/>
			</defs>
			<clipPath id="SVGID_13_">
				<use xlink:href="#SVGID_12_"  style="overflow:visible;"/>
			</clipPath>
			<path class="st6" d="M544.4,295.8l-21.7,66.7L501,295.8c-0.3-0.8-0.9-1.3-1.7-1.3h-18.2c-0.8,0-1.3,0.8-1.1,1.5l27,83.3
				c0.3,0.8,0.9,1.3,1.7,1.3h27.8c0.8,0,1.6-0.5,1.7-1.3l27-83.3c0.3-0.7-0.3-1.5-1.1-1.5h-18.2C545.5,294.5,544.7,295,544.4,295.8"
				/>
		</g>
	</g>
	<g>
		<g>
			<defs>
				<rect id="SVGID_14_" x="293.2" y="99.7" width="453.3" height="475.6"/>
			</defs>
			<clipPath id="SVGID_15_">
				<use xlink:href="#SVGID_14_"  style="overflow:visible;"/>
			</clipPath>
			<rect x="362.5" y="398.6" class="st7" width="5" height="23.4"/>
		</g>
	</g>
	<g>
		<g>
			<defs>
				<rect id="SVGID_16_" x="293.2" y="99.7" width="453.3" height="475.6"/>
			</defs>
			<clipPath id="SVGID_17_">
				<use xlink:href="#SVGID_16_"  style="overflow:visible;"/>
			</clipPath>
			<path class="st8" d="M383.3,412.7c-1.5-2.1-3.1-3.9-4.3-6l0,0c0,2.2,0,4.5,0,6.7v8.6h-4.9v-23.4h4.9l7,9.3c1.5,2.1,3.1,3.9,4.3,6
				l0,0c0-2.2,0-4.5,0-6.7v-8.6h4.9V422h-4.9L383.3,412.7z"/>
		</g>
	</g>
	<g>
		<g>
			<defs>
				<rect id="SVGID_18_" x="293.2" y="99.7" width="453.3" height="475.6"/>
			</defs>
			<clipPath id="SVGID_19_">
				<use xlink:href="#SVGID_18_"  style="overflow:visible;"/>
			</clipPath>
			<path class="st9" d="M401.1,415.4c2.4,1.7,5.6,2.4,7.5,2.4c1.9,0,3.2-0.7,3.2-2.4c0-2.2-2.2-2.4-5.3-3.3
				c-3.2-1.1-6.1-2.6-6.1-6.7c0-4.3,3.3-7.1,8.2-7.1c2.2,0,5,0.6,7.1,1.7v5c-2.4-1.5-5.4-2.2-7.1-2.2c-1.7,0-3.1,0.6-3.1,2.2
				c0,2.1,2.2,2.2,5,3.2c3.6,1.1,6.4,2.8,6.4,7c0,4.5-3.3,7.2-8.5,7.2c-2.2,0-5.3-0.6-7.5-1.7L401.1,415.4L401.1,415.4z"/>
		</g>
	</g>
	<g>
		<g>
			<defs>
				<rect id="SVGID_20_" x="293.2" y="99.7" width="453.3" height="475.6"/>
			</defs>
			<clipPath id="SVGID_21_">
				<use xlink:href="#SVGID_20_"  style="overflow:visible;"/>
			</clipPath>
			<path class="st10" d="M442.3,410.8c0,3.6-0.6,6-1.8,7.8c-1.7,2.4-4.7,3.8-8.5,3.8c-3.8,0-6.7-1.3-8.5-3.8
				c-1.3-1.8-1.7-4.5-1.7-7.7v-12.1h5v12c0,2.4,0.1,3.9,1,5c0.7,1.1,2.1,2.1,4.3,2.1c2.1,0,3.3-0.7,4.2-1.8c0.7-1.1,1-2.8,1-5.3v-12
				h4.9v12L442.3,410.8L442.3,410.8z"/>
		</g>
	</g>
	<g>
		<g>
			<defs>
				<rect id="SVGID_22_" x="293.2" y="99.7" width="453.3" height="475.6"/>
			</defs>
			<clipPath id="SVGID_23_">
				<use xlink:href="#SVGID_22_"  style="overflow:visible;"/>
			</clipPath>
			<path class="st11" d="M448.3,398.6h7.2c2.8,0,5.4,0.4,7.2,1.5c1.7,1.1,2.8,2.8,2.8,5.4c0,3.1-1.7,5.4-4.7,6.5l6.5,9.9h-6l-6-9.2
				h-2.2v9.2h-5v-23.4H448.3z M456,408.9c1.3,0,2.4-0.1,3.2-0.6c1-0.4,1.3-1.3,1.3-2.4c0-1.1-0.4-1.8-1.3-2.2
				c-0.7-0.4-2.1-0.6-3.9-0.6h-2.1v5.8h2.8V408.9z"/>
		</g>
	</g>
	<g>
		<g>
			<defs>
				<rect id="SVGID_24_" x="293.2" y="99.7" width="453.3" height="475.6"/>
			</defs>
			<clipPath id="SVGID_25_">
				<use xlink:href="#SVGID_24_"  style="overflow:visible;"/>
			</clipPath>
			<path class="st12" d="M479.6,398.6h5l9.6,23.4h-5.4l-1.8-4.9h-9.3l-1.8,4.9h-5.4L479.6,398.6z M478.8,413.1h6.4l-1-2.6
				c-0.7-1.8-1.5-4.2-2.1-6l0,0c-0.6,1.7-1.5,4.2-2.2,6L478.8,413.1z"/>
		</g>
	</g>
	<g>
		<g>
			<defs>
				<rect id="SVGID_26_" x="293.2" y="99.7" width="453.3" height="475.6"/>
			</defs>
			<clipPath id="SVGID_27_">
				<use xlink:href="#SVGID_26_"  style="overflow:visible;"/>
			</clipPath>
			<path class="st13" d="M507.8,412.7c-1.5-2.1-3.1-3.9-4.3-6l0,0c0,2.2,0,4.5,0,6.7v8.6h-4.9v-23.4h4.9l7,9.3
				c1.5,2.1,3.1,3.9,4.3,6l0,0c0-2.2,0-4.5,0-6.7v-8.6h4.9V422h-4.9L507.8,412.7z"/>
		</g>
	</g>
	<g>
		<g>
			<defs>
				<rect id="SVGID_28_" x="293.2" y="99.7" width="453.3" height="475.6"/>
			</defs>
			<clipPath id="SVGID_29_">
				<use xlink:href="#SVGID_28_"  style="overflow:visible;"/>
			</clipPath>
			<path class="st14" d="M544.4,420.9c-2.1,1.1-4.5,1.5-7,1.5c-7.5,0-12.7-5.3-12.7-12s5.3-12.1,12.7-12.1c2.4,0,4.7,0.6,6.5,1.5
				v5.3c-1.7-1.1-4.2-2.1-6.5-2.1c-4.5,0-7.7,3.2-7.7,7.5c0,4.2,3.1,7.5,7.8,7.5c2.4,0,4.7-0.7,6.5-2.2v5.3h0.3V420.9z"/>
		</g>
	</g>
	<g>
		<g>
			<defs>
				<rect id="SVGID_30_" x="293.2" y="99.7" width="453.3" height="475.6"/>
			</defs>
			<clipPath id="SVGID_31_">
				<use xlink:href="#SVGID_30_"  style="overflow:visible;"/>
			</clipPath>
			<polygon class="st15" points="549.8,398.6 564.3,398.6 564.3,403 554.8,403 554.8,407.8 562.9,407.8 562.9,412.1 554.8,412.1 
				554.8,417.5 564.6,417.5 564.6,422 549.8,422 			"/>
		</g>
	</g>
	<g>
		<g>
			<defs>
				<rect id="SVGID_32_" x="293.2" y="99.7" width="453.3" height="475.6"/>
			</defs>
			<clipPath id="SVGID_33_">
				<use xlink:href="#SVGID_32_"  style="overflow:visible;"/>
			</clipPath>
		</g>
	</g>
	<g>
		<g>
			<defs>
				<rect id="SVGID_34_" x="293.2" y="99.7" width="453.3" height="475.6"/>
			</defs>
			<clipPath id="SVGID_35_">
				<use xlink:href="#SVGID_34_"  style="overflow:visible;"/>
			</clipPath>
		</g>
	</g>
	<g>
		<g>
			<defs>
				<rect id="SVGID_36_" x="293.2" y="99.7" width="453.3" height="475.6"/>
			</defs>
			<clipPath id="SVGID_37_">
				<use xlink:href="#SVGID_36_"  style="overflow:visible;"/>
			</clipPath>
		</g>
	</g>
	<g>
		<g>
			<defs>
				<rect id="SVGID_38_" x="293.2" y="99.7" width="453.3" height="475.6"/>
			</defs>
			<clipPath id="SVGID_39_">
				<use xlink:href="#SVGID_38_"  style="overflow:visible;"/>
			</clipPath>
		</g>
	</g>
	<g>
		<g>
			<defs>
				<rect id="SVGID_40_" x="293.2" y="99.7" width="453.3" height="475.6"/>
			</defs>
			<clipPath id="SVGID_41_">
				<use xlink:href="#SVGID_40_"  style="overflow:visible;"/>
			</clipPath>
		</g>
	</g>
	<g>
		<g>
			<defs>
				<rect id="SVGID_42_" x="293.2" y="99.7" width="453.3" height="475.6"/>
			</defs>
			<clipPath id="SVGID_43_">
				<use xlink:href="#SVGID_42_"  style="overflow:visible;"/>
			</clipPath>
		</g>
	</g>
	<g>
		<g>
			<defs>
				<rect id="SVGID_44_" x="293.2" y="99.7" width="453.3" height="475.6"/>
			</defs>
			<clipPath id="SVGID_45_">
				<use xlink:href="#SVGID_44_"  style="overflow:visible;"/>
			</clipPath>
		</g>
	</g>
	<g>
		<g>
			<defs>
				<rect id="SVGID_46_" x="293.2" y="99.7" width="453.3" height="475.6"/>
			</defs>
			<clipPath id="SVGID_47_">
				<use xlink:href="#SVGID_46_"  style="overflow:visible;"/>
			</clipPath>
			<path class="st16" d="M662.2,376.1c0-2.6,1.9-4.6,4.6-4.6c2.6,0,4.6,1.9,4.6,4.6c0,2.6-1.9,4.6-4.6,4.6S662.2,378.6,662.2,376.1
				 M670.4,376.1c0-2-1.5-3.6-3.6-3.6c-2.2,0-3.6,1.6-3.6,3.6s1.5,3.6,3.6,3.6C669,379.7,670.4,378.1,670.4,376.1 M666.7,376.8h-0.5
				v1.7H665v-4.8h1.9c1.1,0,1.9,0.5,1.9,1.6c0,0.7-0.4,1.1-0.9,1.3l1.2,1.9h-1.3L666.7,376.8z M666.8,376c0.5,0,0.8-0.1,0.8-0.7
				c0-0.4-0.3-0.7-0.8-0.7h-0.5v1.2h0.5V376z"/>
		</g>
	</g>
</g>
</svg>
